PathFileType	4	(x/y/z)	S02_BK_Cal_T01
DataRate	CameraRate	NumFrames	NumMarkers	Units	OrigDataRate	OrigDataStartFrame	OrigNumFrames
240	240	4	51	mm	240	1201	2400
Frame#	Time	Sternum			R.Acromium			L.Acromium			Top.Head			R.ASIS			L.ASIS			R.PSIS			L.PSIS			R.Great.Tro			L.Great.Tro			R.Iliac.Crest			L.Iliac.Crest			V.Sacral			R.Thigh.Upper.Post			R.Thigh.Lower.Ant			R.Thigh.Lower.Post			R.Thigh.Upper.Ant			R.Knee.Lat			R.Knee.Med			R.Shank.Upper.Post			R.Shank.Lower.Ant			R.Shank.Lower.Post			R.Shank.Upper.Ant			R.Ankle.Lat			R.Ankle.Med			R.Heel.Upper			R.Heel.Med			R.Heel.Lat			R.Toe.Lat			R.Toe.Med			R.Toe.Tip			L.Thigh.Upper.Post			L.Thigh.Lower.Ant			L.Thigh.Lower.Post			L.Thigh.Upper.Ant			L.Knee.Lat			L.Knee.Med			L.Shank.Upper.Post			L.Shank.Lower.Ant			L.Shank.Lower.Post			L.Shank.Upper.Ant			L.Ankle.Lat			L.Ankle.Med			L.Heel.Upper			L.Heel.Med			L.Heel.Lat			L.Toe.Lat			L.Toe.Med			L.Toe.Tip			Cervical.Spine			Back			
		X1	Y1	Z1	X2	Y2	Z2	X3	Y3	Z3	X4	Y4	Z4	X5	Y5	Z5	X6	Y6	Z6	X7	Y7	Z7	X8	Y8	Z8	X9	Y9	Z9	X10	Y10	Z10	X11	Y11	Z11	X12	Y12	Z12	X13	Y13	Z13	X14	Y14	Z14	X15	Y15	Z15	X16	Y16	Z16	X17	Y17	Z17	X18	Y18	Z18	X19	Y19	Z19	X20	Y20	Z20	X21	Y21	Z21	X22	Y22	Z22	X23	Y23	Z23	X24	Y24	Z24	X25	Y25	Z25	X26	Y26	Z26	X27	Y27	Z27	X28	Y28	Z28	X29	Y29	Z29	X30	Y30	Z30	X31	Y31	Z31	X32	Y32	Z32	X33	Y33	Z33	X34	Y34	Z34	X35	Y35	Z35	X36	Y36	Z36	X37	Y37	Z37	X38	Y38	Z38	X39	Y39	Z39	X40	Y40	Z40	X41	Y41	Z41	X42	Y42	Z42	X43	Y43	Z43	X44	Y44	Z44	X45	Y45	Z45	X46	Y46	Z46	X47	Y47	Z47	X48	Y48	Z48	X49	Y49	Z49	X50	Y50	Z50	X51	Y51	Z51	

1201	5	631.3	1066.6	317.06	529.41	1308.5	459.91	520.62	1303.9	164.2	572.69	1597	308.42	591.66	883.09	420.52	587.34	875.85	206.11	371.18	917.12	369.61	364.84	918.96	294.59	522.06	779.58	516.4	463.02	792.54	122.74	493.56	935.81	479.32	466.96	932.41	148.06	344.82	868.88	327.33	586.12	587.54	511.32	661.66	525.3	481.9	595.46	498.33	496.6	648.33	613.38	493.28	630.56	427.23	485.96	627.32	404.75	346.69	495.98	257.25	477.7	537.95	156.03	468.76	478.04	186.26	474.14	558.98	222.1	482.56	458.84	90.722	466.61	474.15	96.672	382.24	399.86	73.801	406.36	416.9	40.845	381.43	398.4	42.989	443.02	552.76	41.379	508.17	600.23	34.683	405.79	639.39	63.464	468.17	514.31	566.75	126.16	611.88	516.73	112.67	546.02	481.68	139.27	572.32	603.47	103.08	619.18	434.43	115.61	634.17	420.65	251.5	499.25	292.49	114.43	542.53	189.22	113.87	478.72	221.24	124.46	557.71	263.92	105.69	465.43	103.24	123.5	485.59	92.814	205.35	406.48	67.516	162.71	420.39	40.884	193.99	408.16	40.396	133.56	567.76	36.936	79.303	604.86	45.598	184.44	657.43	62.881	129.94	450.47	1367.3	312.76	375.5	1119.2	327.38
1202	5.0042	631.27	1066.6	317.07	529.39	1308.5	459.91	520.63	1303.9	164.19	572.68	1597	308.39	591.67	883.08	420.54	587.35	875.85	206.13	371.18	917.11	369.62	364.84	918.96	294.6	522.06	779.57	516.4	463.02	792.54	122.74	493.55	935.8	479.33	466.96	932.41	148.07	344.82	868.88	327.33	586.13	587.53	511.32	661.67	525.29	481.9	595.47	498.33	496.6	648.34	613.38	493.28	630.57	427.23	485.95	627.33	404.75	346.69	495.99	257.25	477.7	537.95	156.03	468.76	478.05	186.26	474.14	558.99	222.1	482.56	458.84	90.725	466.61	474.15	96.672	382.24	399.86	73.803	406.36	416.9	40.845	381.43	398.4	42.991	443.02	552.76	41.378	508.17	600.23	34.682	405.79	639.39	63.463	468.17	514.31	566.74	126.16	611.88	516.72	112.67	546.02	481.68	139.27	572.33	603.46	103.09	619.19	434.43	115.62	634.18	420.65	251.51	499.25	292.49	114.43	542.53	189.22	113.87	478.72	221.24	124.46	557.71	263.92	105.7	465.43	103.24	123.5	485.59	92.813	205.35	406.48	67.516	162.71	420.39	40.886	193.99	408.16	40.394	133.56	567.76	36.936	79.303	604.86	45.597	184.44	657.43	62.882	129.94	450.46	1367.3	312.75	375.5	1119.2	327.37
1203	5.0083	631.25	1066.6	317.08	529.37	1308.5	459.91	520.64	1303.9	164.19	572.66	1597	308.36	591.67	883.07	420.55	587.35	875.85	206.14	371.18	917.1	369.62	364.84	918.95	294.6	522.07	779.57	516.41	463.03	792.54	122.74	493.55	935.8	479.34	466.97	932.42	148.08	344.82	868.87	327.33	586.14	587.52	511.32	661.69	525.29	481.89	595.48	498.32	496.59	648.35	613.38	493.28	630.58	427.23	485.95	627.34	404.75	346.69	496	257.25	477.7	537.95	156.03	468.75	478.05	186.26	474.13	558.99	222.1	482.56	458.85	90.728	466.61	474.16	96.672	382.24	399.86	73.805	406.36	416.9	40.845	381.43	398.4	42.992	443.02	552.76	41.378	508.17	600.24	34.681	405.79	639.39	63.462	468.17	514.32	566.74	126.17	611.89	516.72	112.68	546.03	481.67	139.28	572.34	603.46	103.09	619.19	434.43	115.63	634.18	420.65	251.52	499.26	292.48	114.43	542.54	189.21	113.88	478.72	221.24	124.46	557.71	263.92	105.7	465.43	103.24	123.5	485.59	92.812	205.35	406.48	67.516	162.71	420.38	40.888	193.99	408.16	40.392	133.56	567.76	36.937	79.303	604.86	45.596	184.44	657.43	62.883	129.95	450.46	1367.3	312.73	375.49	1119.2	327.37
1204	5.0125	631.22	1066.6	317.09	529.35	1308.6	459.9	520.65	1303.9	164.19	572.65	1597	308.32	591.67	883.07	420.57	587.35	875.84	206.15	371.18	917.09	369.62	364.84	918.95	294.6	522.07	779.56	516.41	463.03	792.54	122.75	493.55	935.79	479.35	466.97	932.42	148.09	344.82	868.87	327.33	586.15	587.51	511.32	661.7	525.29	481.89	595.5	498.32	496.59	648.36	613.37	493.27	630.59	427.23	485.95	627.35	404.75	346.68	496	257.25	477.7	537.96	156.03	468.75	478.05	186.26	474.13	559	222.1	482.55	458.85	90.731	466.61	474.16	96.672	382.24	399.86	73.807	406.36	416.9	40.845	381.44	398.4	42.994	443.02	552.76	41.378	508.17	600.24	34.68	405.79	639.39	63.462	468.17	514.32	566.74	126.17	611.89	516.72	112.69	546.03	481.67	139.28	572.34	603.46	103.1	619.2	434.43	115.63	634.18	420.64	251.53	499.26	292.48	114.43	542.54	189.21	113.88	478.73	221.24	124.46	557.72	263.92	105.71	465.43	103.24	123.51	485.59	92.811	205.35	406.48	67.516	162.71	420.38	40.89	193.98	408.16	40.39	133.56	567.76	36.937	79.303	604.85	45.595	184.44	657.43	62.884	129.95	450.46	1367.3	312.72	375.48	1119.2	327.37
